<svg id="Capa_1" enable-background="new 0 0 512 512" height="512" viewBox="0 0 512 512" width="512" xmlns="http://www.w3.org/2000/svg"><g><path d="m466.828 34.683h-421.656c-24.948 0-45.172 20.224-45.172 45.172v33.15l22.495 30.905h466.081l23.424-30.905v-33.15c0-24.948-20.224-45.172-45.172-45.172z" fill="#e27d47"/><path d="m466.828 34.683h-23.797c24.947 0 45.172 20.224 45.172 45.172v53.754l23.797-20.604v-33.15c0-24.948-20.224-45.172-45.172-45.172z" fill="#dd544f"/><path d="m466.828 477.317h-421.656c-24.948 0-45.172-20.224-45.172-45.172v-319.14h512v319.14c0 24.948-20.224 45.172-45.172 45.172z" fill="#ffe07d"/><path d="m488.203 113.005v319.14c0 24.947-20.224 45.172-45.172 45.172h23.797c24.948 0 45.172-20.224 45.172-45.172v-319.14z" fill="#ffd064"/><g><g><path d="m63.397 81.571h-10.615c-4.268 0-7.726-3.459-7.726-7.726s3.459-7.726 7.726-7.726h10.615c4.268 0 7.726 3.459 7.726 7.726s-3.458 7.726-7.726 7.726z" fill="#dd636e"/></g><g><path d="m115.85 81.571h-10.616c-4.268 0-7.726-3.459-7.726-7.726s3.459-7.726 7.726-7.726h10.616c4.268 0 7.726 3.459 7.726 7.726s-3.459 7.726-7.726 7.726z" fill="#ffc250"/></g><g><path d="m168.302 81.571h-10.616c-4.268 0-7.726-3.459-7.726-7.726s3.459-7.726 7.726-7.726h10.616c4.268 0 7.726 3.459 7.726 7.726s-3.458 7.726-7.726 7.726z" fill="#d3effb"/></g></g><path d="m250.51 341.691-14.14 14.137-21.257 21.253 32.551 32.556 32.671 32.677c5.003 5.004 13.114 5.004 18.118.002l3.138-3.137c5.004-5.003 5.004-13.114.002-18.118l-22.377-22.381c-2.239-2.24-2.981-5.572-1.903-8.55l3.983-11.004c1.078-2.978.336-6.31-1.903-8.55z" fill="#365e7d"/><path d="m215.113 377.082 20.463 20.466 35.396-35.39-20.462-20.467-14.14 14.138z" fill="#2b4d66"/><path d="m275.11 331.96 95.687-39.45-129.958-129.982-39.468 95.68-4.992 21.485 52.685 52.695z" fill="#e27d47"/><path d="m275.11 331.96-59.099 59.088c-5.535 5.534-14.507 5.533-20.041-.002l-53.699-53.709c-5.534-5.535-5.533-14.508.002-20.041l59.099-59.088z" fill="#f6f1f1"/><path d="m223.667 248.974h17.073v104.292h-17.073z" fill="#dae4ea" transform="matrix(.707 -.707 .707 .707 -144.909 252.355)"/><path d="m233.699 179.836 119.789 119.81 17.309-7.136-129.958-129.982z" fill="#dd544f"/><path d="m172.622 401.378 16.842-16.839-40.688-40.695-16.842 16.839c-11.238 11.236-11.239 29.454-.004 40.691 11.236 11.238 29.455 11.24 40.692.004z" fill="#e27d47"/><g><path d="m178.557 414.136c-1.978 0-3.955-.755-5.464-2.264l-51.653-51.662c-3.017-3.017-3.017-7.909.001-10.927 3.017-3.017 7.909-3.016 10.927.001l51.653 51.662c3.017 3.017 3.017 7.909-.001 10.927-1.508 1.509-3.486 2.263-5.463 2.263z" fill="#2b4d66"/></g><g><path d="m376.92 306.36c-1.978 0-3.955-.755-5.464-2.264l-142.204-142.23c-3.017-3.017-3.017-7.909.001-10.927 3.017-3.016 7.909-3.017 10.927.001l142.204 142.23c3.017 3.017 3.017 7.909-.001 10.927-1.508 1.509-3.486 2.263-5.463 2.263z" fill="#2b4d66"/></g><g><path d="m321.187 331.196c-1.978 0-3.955-.755-5.464-2.264l-111.317-111.336c-3.017-3.017-3.017-7.909.001-10.927 3.017-3.017 7.909-3.016 10.927.001l111.317 111.337c3.017 3.017 3.017 7.909-.001 10.927-1.509 1.508-3.486 2.262-5.463 2.262z" fill="#2b4d66"/></g><path d="m194.7 307.784-13.501 13.499c-4.953 4.952-12.983 4.951-17.935-.002l-12.486-12.489 31.438-31.433 12.486 12.489c4.952 4.954 4.951 12.984-.002 17.936z" fill="#e27d47"/><path d="m171.222 288.352 12.486 12.489c4.952 4.953 4.951 12.983-.002 17.935l10.994-10.992c4.953-4.952 4.954-12.982.002-17.935l-12.486-12.489z" fill="#dd544f"/><g><path d="m331.725 209.31c-1.977 0-3.955-.755-5.464-2.263-3.017-3.018-3.017-7.909 0-10.928l20.701-20.701c3.018-3.016 7.909-3.016 10.928 0 3.017 3.018 3.017 7.909 0 10.928l-20.701 20.701c-1.509 1.508-3.487 2.263-5.464 2.263z" fill="#365e7d"/></g><g><path d="m291.249 181.255c-4.268 0-7.726-3.459-7.726-7.726v-29.276c0-4.268 3.459-7.726 7.726-7.726s7.726 3.459 7.726 7.726v29.276c0 4.267-3.458 7.726-7.726 7.726z" fill="#365e7d"/></g><g><path d="m388.495 250.018h-29.276c-4.268 0-7.726-3.459-7.726-7.726s3.459-7.726 7.726-7.726h29.276c4.268 0 7.726 3.459 7.726 7.726s-3.459 7.726-7.726 7.726z" fill="#365e7d"/></g><g><path d="m110.542 181.255h-66.096c-4.268 0-7.726-3.459-7.726-7.726s3.459-7.726 7.726-7.726h66.096c4.268 0 7.726 3.459 7.726 7.726s-3.459 7.726-7.726 7.726z" fill="#365e7d"/></g><g><path d="m89.938 219.859h-45.492c-4.268 0-7.726-3.459-7.726-7.726s3.459-7.726 7.726-7.726h45.492c4.268 0 7.726 3.459 7.726 7.726s-3.458 7.726-7.726 7.726z" fill="#365e7d"/></g><g><path d="m462.087 384.282h-109.661c-4.268 0-7.726-3.459-7.726-7.726s3.459-7.726 7.726-7.726h109.661c4.268 0 7.726 3.459 7.726 7.726s-3.458 7.726-7.726 7.726z" fill="#365e7d"/></g><g><path d="m462.087 418.323h-68.454c-4.268 0-7.726-3.459-7.726-7.726s3.459-7.726 7.726-7.726h68.454c4.268 0 7.726 3.459 7.726 7.726s-3.458 7.726-7.726 7.726z" fill="#365e7d"/></g></g></svg>